<?xml version="1.0" encoding="UTF-8" standalone="no"?>
<!-- Generator: Adobe Illustrator 28.3.0, SVG Export Plug-In . SVG Version: 6.00 Build 0)  -->

<svg
   version="1.1"
   id="Layer_1"
   x="0px"
   y="0px"
   width="810"
   height="200"
   viewBox="0 0 810 200"
   xml:space="preserve"
   sodipodi:docname="margo-horizontal-white.svg"
   inkscape:version="1.3.2 (091e20e, 2023-11-25)"
   xmlns:inkscape="http://www.inkscape.org/namespaces/inkscape"
   xmlns:sodipodi="http://sodipodi.sourceforge.net/DTD/sodipodi-0.dtd"
   xmlns="http://www.w3.org/2000/svg"
   xmlns:svg="http://www.w3.org/2000/svg"><defs
   id="defs6">
	
	
</defs><sodipodi:namedview
   id="namedview6"
   pagecolor="#ffffff"
   bordercolor="#000000"
   borderopacity="0.25"
   inkscape:showpageshadow="2"
   inkscape:pageopacity="0.0"
   inkscape:pagecheckerboard="true"
   inkscape:deskcolor="#d1d1d1"
   inkscape:zoom="1.0824912"
   inkscape:cx="400.00325"
   inkscape:cy="78.522578"
   inkscape:window-width="1776"
   inkscape:window-height="919"
   inkscape:window-x="321"
   inkscape:window-y="228"
   inkscape:window-maximized="0"
   inkscape:current-layer="Layer_1"
   showguides="true"
   labelstyle="default"><sodipodi:guide
     position="-53.580112,100.23014"
     orientation="0,-1"
     id="guide6"
     inkscape:locked="false" /></sodipodi:namedview>
<style
   type="text/css"
   id="style1">
	.st0{fill:url(#SVGID_1_);}
	.st1{fill:#FFFFFF;}
	.st2{fill:url(#SVGID_00000056427691281034464480000005367566115110485413_);}
	.st3{fill:url(#SVGID_00000123426681433499471510000008483609223441001388_);}
	.st4{fill:#B337D1;}
	.st5{fill:#0080FF;}
	.st6{fill:none;stroke:#848485;stroke-width:0.5;stroke-miterlimit:10;}
	.st7{fill:url(#SVGID_00000064347487159793575980000007551895495084617647_);}
	.st8{fill:url(#SVGID_00000038397992667046632060000002736042817121600432_);}
	.st9{fill:url(#SVGID_00000021833345431833282860000015118028448595754891_);}
	.st10{fill:url(#SVGID_00000150062524032583223010000014974740176609715894_);}
	.st11{fill:url(#SVGID_00000139259549184664384630000017555727832458249608_);}
	.st12{fill:url(#SVGID_00000072991660752151962380000002142151913618675869_);}
	.st13{fill:url(#SVGID_00000162338951723858535940000009736128548026925999_);}
	.st14{fill:url(#SVGID_00000016757755550123320500000009399359720458794658_);}
	.st15{fill:url(#SVGID_00000049220341196830663690000007475409757457509802_);}
	.st16{fill:url(#SVGID_00000049214095963627821080000010087690288850755753_);}
	.st17{fill:url(#SVGID_00000003103205657302951650000004142263472869983667_);}
	.st18{fill:url(#SVGID_00000096049896373290275690000002959767093574251407_);}
	.st19{fill:url(#SVGID_00000078030344330278135090000010119296972682969003_);}
</style>
<g
   id="g5"
   transform="translate(4,38)">
		<path
   class="st1"
   d="m 281.3,111.8 c -3.9,0 -7.2,-0.9 -9.7,-2.7 -2.5,-1.8 -3.8,-3.8 -3.8,-5.9 v -83 c 0,-2.5 1.3,-4.6 3.8,-6.1 2.5,-1.5 5.8,-2.3 9.7,-2.3 3.4,0 6.2,0.8 8.5,2.3 2.3,1.5 3.5,3.6 3.5,6.1 v 6.3 c 2.4,-4.1 5.9,-7.8 10.5,-11.1 4.6,-3.3 10.5,-4.9 17.5,-4.9 6,0 11.4,2 16,5.9 4.6,3.9 8.1,9 10.3,15.2 3.6,-7.2 8.3,-12.5 14,-15.9 5.7,-3.4 11.5,-5.2 17.6,-5.2 6.5,0 12.5,1.7 18.2,4.9 5.7,3.3 10.3,8.1 13.9,14.5 3.6,6.4 5.4,14.1 5.4,23.3 v 49.9 c 0,2.1 -1.3,4.1 -4,5.9 -2.7,1.8 -5.9,2.7 -9.7,2.7 -3.7,0 -6.8,-0.9 -9.5,-2.7 -2.7,-1.8 -4,-3.8 -4,-5.9 V 53.2 c 0,-4.2 -0.8,-7.7 -2.4,-10.5 -1.6,-2.8 -3.8,-4.9 -6.4,-6.4 -2.7,-1.5 -5.4,-2.2 -8.2,-2.2 -2.8,0 -5.4,0.7 -7.9,2.2 -2.5,1.5 -4.5,3.6 -6.2,6.4 -1.7,2.8 -2.5,6.2 -2.5,10.3 v 50.3 c 0,2.9 -1.4,5.1 -4.3,6.4 -2.9,1.3 -6,2 -9.4,2 -3.1,0 -6.1,-0.7 -9.1,-2 -2.9,-1.3 -4.4,-3.5 -4.4,-6.4 V 53.2 c 0,-3.9 -0.8,-7.3 -2.4,-10.1 -1.6,-2.8 -3.7,-5 -6.3,-6.5 -2.6,-1.5 -5.4,-2.3 -8.3,-2.3 -2.8,0 -5.5,0.7 -8,2.1 -2.5,1.4 -4.6,3.5 -6.2,6.3 -1.6,2.8 -2.4,6.3 -2.4,10.5 v 49.9 c 0,2.1 -1.3,4.1 -4,5.9 -2.7,1.8 -6,2.8 -9.8,2.8 z"
   id="path1" />
		<path
   class="st1"
   d="m 458.4,113.7 c -7.4,0 -13.9,-2.3 -19.3,-6.8 -5.4,-4.6 -8.1,-11.6 -8.1,-21.2 0,-8 2.1,-14.2 6.2,-18.7 4.1,-4.5 9.9,-7.6 17.3,-9.5 7.4,-1.8 15.9,-2.7 25.6,-2.7 h 8.6 V 52 c 0,-3.1 -0.6,-6.1 -1.8,-9.1 -1.2,-2.9 -3.1,-5.4 -5.7,-7.4 -2.6,-2 -6.3,-2.9 -11.1,-2.9 -5.3,0 -9.4,0.5 -12.3,1.6 -2.9,1.1 -5.1,2.1 -6.6,3.3 -1.5,1.1 -3.2,1.7 -5.1,1.7 -2.9,0 -5.2,-1.5 -6.8,-4.4 -1.6,-2.9 -2.4,-6 -2.4,-9.1 0,-2.9 1.8,-5.6 5.4,-7.9 3.6,-2.3 8,-4.1 13.2,-5.4 5.2,-1.3 10.2,-1.9 15.2,-1.9 11,0 19.7,2 26.3,5.9 6.6,3.9 11.4,9 14.4,15.2 3,6.2 4.5,12.8 4.5,20 v 51.6 c 0,2.4 -1.3,4.4 -3.8,6.1 -2.5,1.7 -5.7,2.5 -9.5,2.5 -3.5,0 -6.4,-0.8 -8.7,-2.5 -2.3,-1.7 -3.5,-3.7 -3.5,-6.1 V 97 c -3.8,4.4 -8.2,8.2 -13.4,11.6 -5.1,3.4 -11.3,5.1 -18.6,5.1 z m 11,-20.3 c 2.9,0 5.9,-1 8.8,-2.9 2.9,-2 5.4,-4.5 7.5,-7.6 2,-3.1 3.1,-6.3 3.1,-9.7 v -4.4 h -3.2 c -4.6,0 -9.1,0.3 -13.3,0.8 -4.2,0.6 -7.6,1.8 -10.2,3.7 -2.6,1.9 -3.9,4.8 -3.9,8.7 0,3.9 1.1,6.8 3.3,8.6 2.2,1.9 4.8,2.8 7.9,2.8 z"
   id="path2" />
		<path
   class="st1"
   d="m 549.4,111.8 c -3.8,0 -6.9,-0.9 -9.5,-2.7 -2.5,-1.8 -3.8,-3.8 -3.8,-5.9 v -83 c 0,-2.5 1.3,-4.6 3.8,-6.1 2.5,-1.5 5.7,-2.3 9.5,-2.3 3.5,0 6.4,0.8 8.7,2.3 2.3,1.5 3.5,3.6 3.5,6.1 v 8.6 c 1.5,-3.1 3.6,-6 6.2,-8.7 2.6,-2.7 5.6,-5 8.9,-6.8 3.4,-1.8 6.9,-2.7 10.7,-2.7 h 6.5 c 2.7,0 5,1.2 6.9,3.5 2,2.3 2.9,5.1 2.9,8.3 0,3.4 -1,6.2 -2.9,8.5 -2,2.3 -4.3,3.5 -6.9,3.5 h -6.5 c -3.9,0 -7.8,1.3 -11.5,3.9 -3.7,2.6 -6.8,6.2 -9.2,10.7 -2.4,4.6 -3.6,10.1 -3.6,16.5 v 37.7 c 0,2.1 -1.3,4.1 -4,5.9 -2.5,1.7 -5.8,2.7 -9.7,2.7 z"
   id="path3" />
		<path
   class="st1"
   d="m 653.4,158.3 c -8.3,0 -16,-1.2 -23.1,-3.5 -7.1,-2.3 -12.8,-5.7 -17.1,-10.2 -4.3,-4.5 -6.4,-9.8 -6.4,-16 0,-5.3 1.5,-9.9 4.4,-13.6 2.9,-3.7 6.6,-6.6 10.9,-8.7 -2.7,-1.3 -4.8,-2.9 -6.4,-5.1 -1.6,-2.1 -2.4,-4.9 -2.4,-8.4 0,-3.9 1,-7.1 3.1,-9.6 2,-2.5 4.6,-4.7 7.7,-6.8 -4.2,-3.2 -7.4,-7.1 -9.7,-11.7 -2.2,-4.6 -3.4,-9.6 -3.4,-15.1 v -4.4 c 0,-6.9 1.7,-12.9 5.1,-18.1 3.4,-5.2 8.2,-9.3 14.4,-12.2 6.2,-2.9 13.4,-4.4 21.6,-4.4 4.6,0 9,0.5 13.1,1.6 4.1,1.1 7.7,2.6 11,4.5 2.4,-5.6 4.6,-9.4 6.7,-11.4 2.1,-2 4.1,-2.9 6.1,-2.9 3.4,0 6,1 7.9,2.9 1.9,2 2.8,3.8 2.8,5.5 0,1.3 -0.3,2.4 -0.9,3.4 -0.6,1 -1.5,1.8 -2.6,2.5 -1.3,0.8 -2.8,1.9 -4.6,3.1 -1.8,1.2 -3.5,2.8 -5.1,4.9 2.5,2.8 4.4,5.9 5.6,9.4 1.2,3.4 1.8,7.2 1.8,11.3 v 4.4 c 0,6.7 -1.8,12.7 -5.3,18 -3.5,5.3 -8.4,9.4 -14.7,12.5 -6.3,3.1 -13.6,4.6 -21.7,4.6 -5.1,0 -9.6,-0.6 -13.7,-1.9 -0.7,0.6 -1.3,1.2 -1.8,1.9 -0.5,0.7 -0.7,1.5 -0.7,2.3 0,2.4 1.5,4.1 4.6,5.1 3.1,1 7,1.8 11.8,2.3 4.8,0.6 9.9,1.3 15.3,2.2 5.4,0.9 10.5,2.4 15.3,4.3 4.8,2 8.7,4.9 11.8,8.7 3.1,3.9 4.6,9 4.6,15.5 0,7.9 -2.2,14.2 -6.6,19.1 -4.4,4.8 -10.1,8.4 -17.1,10.6 -7,2.3 -14.4,3.4 -22.3,3.4 z M 653,140.8 c 5.5,0 10.1,-1.3 14,-4 3.9,-2.7 5.8,-6.2 5.8,-10.7 0,-2.9 -0.8,-5.3 -2.5,-7.2 -1.7,-1.8 -4,-3.2 -6.8,-4.1 -2.9,-0.9 -6,-1.6 -9.4,-2.1 -3.4,-0.5 -6.7,-0.9 -10.1,-1.4 -3.4,1.5 -6.1,3.5 -8.2,5.9 -2.1,2.4 -3.2,5.3 -3.2,8.6 0,4.6 2,8.3 6,11 4,2.7 8.8,4 14.4,4 z m -0.4,-72.4 c 4.6,0 8.3,-1.8 10.9,-5.3 2.7,-3.5 4,-8 4,-13.5 v -4.4 c 0,-5.2 -1.3,-9.5 -3.9,-13.1 -2.6,-3.5 -6.4,-5.3 -11.3,-5.3 -4.8,0 -8.5,1.8 -11.1,5.3 -2.6,3.5 -3.9,7.9 -3.9,13.1 v 4.2 c 0,5.3 1.3,9.8 3.9,13.5 2.7,3.7 6.5,5.5 11.4,5.5 z"
   id="path4" />
		<path
   class="st1"
   d="m 754.3,113.7 c -8.1,0 -15.7,-2 -22.5,-6 -6.9,-4 -12.4,-9.3 -16.6,-15.9 -4.2,-6.6 -6.3,-13.7 -6.3,-21.3 V 53.2 c 0,-7.6 2,-14.6 6.1,-21.2 4.1,-6.5 9.6,-11.8 16.5,-15.7 6.9,-3.9 14.6,-5.9 22.8,-5.9 8.3,0 15.9,1.9 22.8,5.8 6.9,3.9 12.5,9 16.6,15.5 4.1,6.5 6.2,13.6 6.2,21.5 v 17.3 c 0,7.4 -2.1,14.5 -6.3,21.1 -4.2,6.6 -9.8,11.9 -16.7,16 -6.9,4 -14.5,6.1 -22.6,6.1 z m 0,-23.8 c 3.4,0 6.5,-0.9 9.3,-2.7 2.8,-1.8 5.1,-4.2 6.7,-7.3 1.7,-3 2.5,-6.1 2.5,-9.4 V 53.2 c 0,-3.2 -0.8,-6.2 -2.5,-9.1 -1.7,-2.8 -3.9,-5.2 -6.6,-7.1 -2.7,-1.9 -5.9,-2.8 -9.4,-2.8 -3.4,0 -6.5,0.9 -9.3,2.7 -2.8,1.8 -5,4.2 -6.6,7.1 -1.6,2.9 -2.4,5.9 -2.4,9.2 v 17.3 c 0,3.2 0.8,6.4 2.4,9.4 1.6,3 3.8,5.4 6.6,7.3 2.8,1.7 5.9,2.7 9.3,2.7 z"
   id="path5" />
	</g><path
   class="st1"
   d="m 195.1,88.3 -29.4,29.3 29.4,29.3 29.4,-29.3 z M 117,158.6 87.6,129.3 c -2.1,-2.1 -5.6,-2.1 -7.7,0 l -29.4,29.3 c -2.1,2.1 -5.6,2.1 -7.7,0 L 5.6,121.5 c -2.1,-2.1 -2.1,-5.6 0,-7.8 L 79.9,39.6 c 2.1,-2.1 5.6,-2.1 7.7,0 L 117,68.9 c 2.1,2.1 5.6,2.1 7.7,0 l 29.4,-29.3 c 2.1,-2.1 5.6,-2.1 7.7,0 l 21.6,21.6 c 2.1,2.1 2.1,5.6 0,7.8 v 0 c -2.1,2.1 -5.6,2.1 -7.7,0 L 161.8,55.2 c -2.1,-2.1 -5.6,-2.1 -7.7,0 l -21.6,21.6 c -2.1,2.1 -2.1,5.6 0,7.8 l 21.6,21.4 c 2.1,2.1 5.6,2.1 7.7,0 l 29.4,-29.3 c 2.1,-2.1 5.6,-2.1 7.7,0 l 37.1,37.1 c 2.1,2.1 2.1,5.6 0,7.8 l -37,37 c -2.1,2.1 -5.6,2.1 -7.7,0 l -29.4,-29.3 c -2.1,-2.1 -5.6,-2.1 -7.7,0 l -29.4,29.3 c -2.2,2.2 -5.7,2.2 -7.8,0 z M 91.5,117.7 120.9,147 150.3,117.7 120.9,88.4 Z M 66,92.2 83.7,109.9 113.1,80.6 83.7,51.2 17.2,117.7 46.6,147 76,117.7 58.3,100 c -2.1,-2.1 -2.1,-5.6 0,-7.8 v 0 c 2.1,-2.1 5.6,-2.1 7.7,0 z"
   id="path6" />
<g
   inkscape:groupmode="layer"
   id="layer1"
   inkscape:label="Background" /></svg>
