<?xml version="1.0" encoding="utf-8"?>
<!-- Generator: Adobe Illustrator 28.3.0, SVG Export Plug-In . SVG Version: 6.00 Build 0)  -->
<svg version="1.1" id="Layer_1" xmlns="http://www.w3.org/2000/svg" xmlns:xlink="http://www.w3.org/1999/xlink" x="0px" y="0px"
	 width="800px" height="158.3px" viewBox="0 0 800 158.3" style="enable-background:new 0 0 800 158.3;" xml:space="preserve">
<style type="text/css">
	.st0{fill:url(#SVGID_1_);}
	.st1{fill:#FFFFFF;}
	.st2{fill:url(#SVGID_00000168110686368292808810000012935340401938670775_);}
	.st3{fill:url(#SVGID_00000077294496354674598580000002748669927680641197_);}
	.st4{fill:#B337D1;}
	.st5{fill:#0080FF;}
	.st6{fill:none;stroke:#848485;stroke-width:0.5;stroke-miterlimit:10;}
	.st7{fill:url(#SVGID_00000014622098000631053280000018401494698810007723_);}
	.st8{fill:url(#SVGID_00000025407009279917782670000011022361770580288135_);}
	.st9{fill:url(#SVGID_00000166636382265661928120000010734903578824460981_);}
	.st10{fill:url(#SVGID_00000016782223820208084870000017706093887775371138_);}
	.st11{fill:url(#SVGID_00000123442332303301675510000004367424874420485287_);}
	.st12{fill:url(#SVGID_00000036235885937915549930000001728561529584946308_);}
	.st13{fill:url(#SVGID_00000136381066177747204870000001219555529551591318_);}
	.st14{fill:url(#SVGID_00000132051376880177822370000006485663245545552008_);}
	.st15{fill:url(#SVGID_00000163754979150400060620000012597006942725266101_);}
	.st16{fill:url(#SVGID_00000090293913261546923580000011251099593596230291_);}
	.st17{fill:url(#SVGID_00000047743206532578695600000000538425558371121061_);}
	.st18{fill:url(#SVGID_00000170265476391258271920000009177641324992129420_);}
	.st19{fill:url(#SVGID_00000104691733239854753250000001458566103393704632_);}
</style>
<g>
	<g>
		<path d="M281.3,111.8c-3.9,0-7.2-0.9-9.7-2.7c-2.5-1.8-3.8-3.8-3.8-5.9v-83c0-2.5,1.3-4.6,3.8-6.1c2.5-1.5,5.8-2.3,9.7-2.3
			c3.4,0,6.2,0.8,8.5,2.3c2.3,1.5,3.5,3.6,3.5,6.1v6.3c2.4-4.1,5.9-7.8,10.5-11.1c4.6-3.3,10.5-4.9,17.5-4.9c6,0,11.4,2,16,5.9
			c4.6,3.9,8.1,9,10.3,15.2c3.6-7.2,8.3-12.5,14-15.9c5.7-3.4,11.5-5.2,17.6-5.2c6.5,0,12.5,1.7,18.2,4.9
			c5.7,3.3,10.3,8.1,13.9,14.5c3.6,6.4,5.4,14.1,5.4,23.3v49.9c0,2.1-1.3,4.1-4,5.9c-2.7,1.8-5.9,2.7-9.7,2.7
			c-3.7,0-6.8-0.9-9.5-2.7c-2.7-1.8-4-3.8-4-5.9V53.2c0-4.2-0.8-7.7-2.4-10.5c-1.6-2.8-3.8-4.9-6.4-6.4c-2.7-1.5-5.4-2.2-8.2-2.2
			c-2.8,0-5.4,0.7-7.9,2.2c-2.5,1.5-4.5,3.6-6.2,6.4c-1.7,2.8-2.5,6.2-2.5,10.3v50.3c0,2.9-1.4,5.1-4.3,6.4c-2.9,1.3-6,2-9.4,2
			c-3.1,0-6.1-0.7-9.1-2c-2.9-1.3-4.4-3.5-4.4-6.4V53.2c0-3.9-0.8-7.3-2.4-10.1c-1.6-2.8-3.7-5-6.3-6.5c-2.6-1.5-5.4-2.3-8.3-2.3
			c-2.8,0-5.5,0.7-8,2.1c-2.5,1.4-4.6,3.5-6.2,6.3c-1.6,2.8-2.4,6.3-2.4,10.5v49.9c0,2.1-1.3,4.1-4,5.9
			C288.4,110.8,285.1,111.8,281.3,111.8z"/>
		<path d="M458.4,113.7c-7.4,0-13.9-2.3-19.3-6.8c-5.4-4.6-8.1-11.6-8.1-21.2c0-8,2.1-14.2,6.2-18.7c4.1-4.5,9.9-7.6,17.3-9.5
			c7.4-1.8,15.9-2.7,25.6-2.7h8.6V52c0-3.1-0.6-6.1-1.8-9.1c-1.2-2.9-3.1-5.4-5.7-7.4c-2.6-2-6.3-2.9-11.1-2.9
			c-5.3,0-9.4,0.5-12.3,1.6c-2.9,1.1-5.1,2.1-6.6,3.3c-1.5,1.1-3.2,1.7-5.1,1.7c-2.9,0-5.2-1.5-6.8-4.4c-1.6-2.9-2.4-6-2.4-9.1
			c0-2.9,1.8-5.6,5.4-7.9s8-4.1,13.2-5.4c5.2-1.3,10.2-1.9,15.2-1.9c11,0,19.7,2,26.3,5.9c6.6,3.9,11.4,9,14.4,15.2
			c3,6.2,4.5,12.8,4.5,20v51.6c0,2.4-1.3,4.4-3.8,6.1c-2.5,1.7-5.7,2.5-9.5,2.5c-3.5,0-6.4-0.8-8.7-2.5c-2.3-1.7-3.5-3.7-3.5-6.1V97
			c-3.8,4.4-8.2,8.2-13.4,11.6C471.9,112,465.7,113.7,458.4,113.7z M469.4,93.4c2.9,0,5.9-1,8.8-2.9c2.9-2,5.4-4.5,7.5-7.6
			c2-3.1,3.1-6.3,3.1-9.7v-4.4h-3.2c-4.6,0-9.1,0.3-13.3,0.8c-4.2,0.6-7.6,1.8-10.2,3.7c-2.6,1.9-3.9,4.8-3.9,8.7
			c0,3.9,1.1,6.8,3.3,8.6C463.7,92.5,466.3,93.4,469.4,93.4z"/>
		<path d="M549.4,111.8c-3.8,0-6.9-0.9-9.5-2.7c-2.5-1.8-3.8-3.8-3.8-5.9v-83c0-2.5,1.3-4.6,3.8-6.1c2.5-1.5,5.7-2.3,9.5-2.3
			c3.5,0,6.4,0.8,8.7,2.3c2.3,1.5,3.5,3.6,3.5,6.1v8.6c1.5-3.1,3.6-6,6.2-8.7c2.6-2.7,5.6-5,8.9-6.8c3.4-1.8,6.9-2.7,10.7-2.7h6.5
			c2.7,0,5,1.2,6.9,3.5c2,2.3,2.9,5.1,2.9,8.3c0,3.4-1,6.2-2.9,8.5c-2,2.3-4.3,3.5-6.9,3.5h-6.5c-3.9,0-7.8,1.3-11.5,3.9
			c-3.7,2.6-6.8,6.2-9.2,10.7c-2.4,4.6-3.6,10.1-3.6,16.5v37.7c0,2.1-1.3,4.1-4,5.9C556.6,110.8,553.3,111.8,549.4,111.8z"/>
		<path d="M653.4,158.3c-8.3,0-16-1.2-23.1-3.5c-7.1-2.3-12.8-5.7-17.1-10.2c-4.3-4.5-6.4-9.8-6.4-16c0-5.3,1.5-9.9,4.4-13.6
			c2.9-3.7,6.6-6.6,10.9-8.7c-2.7-1.3-4.8-2.9-6.4-5.1c-1.6-2.1-2.4-4.9-2.4-8.4c0-3.9,1-7.1,3.1-9.6c2-2.5,4.6-4.7,7.7-6.8
			c-4.2-3.2-7.4-7.1-9.7-11.7c-2.2-4.6-3.4-9.6-3.4-15.1v-4.4c0-6.9,1.7-12.9,5.1-18.1c3.4-5.2,8.2-9.3,14.4-12.2
			c6.2-2.9,13.4-4.4,21.6-4.4c4.6,0,9,0.5,13.1,1.6c4.1,1.1,7.7,2.6,11,4.5c2.4-5.6,4.6-9.4,6.7-11.4c2.1-2,4.1-2.9,6.1-2.9
			c3.4,0,6,1,7.9,2.9c1.9,2,2.8,3.8,2.8,5.5c0,1.3-0.3,2.4-0.9,3.4c-0.6,1-1.5,1.8-2.6,2.5c-1.3,0.8-2.8,1.9-4.6,3.1
			c-1.8,1.2-3.5,2.8-5.1,4.9c2.5,2.8,4.4,5.9,5.6,9.4c1.2,3.4,1.8,7.2,1.8,11.3v4.4c0,6.7-1.8,12.7-5.3,18
			c-3.5,5.3-8.4,9.4-14.7,12.5c-6.3,3.1-13.6,4.6-21.7,4.6c-5.1,0-9.6-0.6-13.7-1.9c-0.7,0.6-1.3,1.2-1.8,1.9
			c-0.5,0.7-0.7,1.5-0.7,2.3c0,2.4,1.5,4.1,4.6,5.1c3.1,1,7,1.8,11.8,2.3c4.8,0.6,9.9,1.3,15.3,2.2c5.4,0.9,10.5,2.4,15.3,4.3
			c4.8,2,8.7,4.9,11.8,8.7c3.1,3.9,4.6,9,4.6,15.5c0,7.9-2.2,14.2-6.6,19.1c-4.4,4.8-10.1,8.4-17.1,10.6
			C668.7,157.2,661.3,158.3,653.4,158.3z M653,140.8c5.5,0,10.1-1.3,14-4c3.9-2.7,5.8-6.2,5.8-10.7c0-2.9-0.8-5.3-2.5-7.2
			c-1.7-1.8-4-3.2-6.8-4.1c-2.9-0.9-6-1.6-9.4-2.1c-3.4-0.5-6.7-0.9-10.1-1.4c-3.4,1.5-6.1,3.5-8.2,5.9c-2.1,2.4-3.2,5.3-3.2,8.6
			c0,4.6,2,8.3,6,11C642.6,139.5,647.4,140.8,653,140.8z M652.6,68.4c4.6,0,8.3-1.8,10.9-5.3c2.7-3.5,4-8,4-13.5v-4.4
			c0-5.2-1.3-9.5-3.9-13.1c-2.6-3.5-6.4-5.3-11.3-5.3c-4.8,0-8.5,1.8-11.1,5.3c-2.6,3.5-3.9,7.9-3.9,13.1v4.2
			c0,5.3,1.3,9.8,3.9,13.5C643.9,66.6,647.7,68.4,652.6,68.4z"/>
		<path d="M754.3,113.7c-8.1,0-15.7-2-22.5-6c-6.9-4-12.4-9.3-16.6-15.9c-4.2-6.6-6.3-13.7-6.3-21.3V53.2c0-7.6,2-14.6,6.1-21.2
			c4.1-6.5,9.6-11.8,16.5-15.7c6.9-3.9,14.6-5.9,22.8-5.9c8.3,0,15.9,1.9,22.8,5.8c6.9,3.9,12.5,9,16.6,15.5
			c4.1,6.5,6.2,13.6,6.2,21.5v17.3c0,7.4-2.1,14.5-6.3,21.1c-4.2,6.6-9.8,11.9-16.7,16C770,111.6,762.4,113.7,754.3,113.7z
			 M754.3,89.9c3.4,0,6.5-0.9,9.3-2.7c2.8-1.8,5.1-4.2,6.7-7.3c1.7-3,2.5-6.1,2.5-9.4V53.2c0-3.2-0.8-6.2-2.5-9.1
			c-1.7-2.8-3.9-5.2-6.6-7.1c-2.7-1.9-5.9-2.8-9.4-2.8c-3.4,0-6.5,0.9-9.3,2.7c-2.8,1.8-5,4.2-6.6,7.1c-1.6,2.9-2.4,5.9-2.4,9.2
			v17.3c0,3.2,0.8,6.4,2.4,9.4c1.6,3,3.8,5.4,6.6,7.3C747.8,88.9,750.9,89.9,754.3,89.9z"/>
	</g>
	<path d="M191.1,50.3l-29.4,29.3l29.4,29.3l29.4-29.3L191.1,50.3z M113,120.6L83.6,91.3c-2.1-2.1-5.6-2.1-7.7,0l-29.4,29.3
		c-2.1,2.1-5.6,2.1-7.7,0L1.6,83.5c-2.1-2.1-2.1-5.6,0-7.8L75.9,1.6c2.1-2.1,5.6-2.1,7.7,0L113,30.9c2.1,2.1,5.6,2.1,7.7,0
		l29.4-29.3c2.1-2.1,5.6-2.1,7.7,0l21.6,21.6c2.1,2.1,2.1,5.6,0,7.8v0c-2.1,2.1-5.6,2.1-7.7,0l-13.9-13.8c-2.1-2.1-5.6-2.1-7.7,0
		l-21.6,21.6c-2.1,2.1-2.1,5.6,0,7.8L150.1,68c2.1,2.1,5.6,2.1,7.7,0l29.4-29.3c2.1-2.1,5.6-2.1,7.7,0l37.1,37.1
		c2.1,2.1,2.1,5.6,0,7.8L195,120.6c-2.1,2.1-5.6,2.1-7.7,0l-29.4-29.3c-2.1-2.1-5.6-2.1-7.7,0l-29.4,29.3
		C118.6,122.8,115.1,122.8,113,120.6L113,120.6z M87.5,79.7l29.4,29.3l29.4-29.3l-29.4-29.3L87.5,79.7z M62,54.2l17.7,17.7
		l29.4-29.3L79.7,13.2L13.2,79.7L42.6,109L72,79.7L54.3,62c-2.1-2.1-2.1-5.6,0-7.8l0,0C56.4,52.1,59.9,52.1,62,54.2z"/>
</g>
</svg>
